<svg height="341.337pt" viewBox="0 0 512 341.337" width="512pt" xmlns="http://www.w3.org/2000/svg" xmlns:xlink="http://www.w3.org/1999/xlink"><clipPath id="a"><path d="m0 0h512v341.337h-512z"/></clipPath><clipPath id="b"><path d="m0 0h512v341.337h-512z"/></clipPath><g clip-path="url(#a)"><g clip-path="url(#b)"><path d="m0 0h512v341.337h-512z" fill="#f0f0f0"/><path d="m0 0h512v42.663h-512z" fill="#d80027"/><path d="m0 149.337h512v42.663h-512z" fill="#d80027"/><path d="m0 224.326h512v42.663h-512z" fill="#d80027"/><path d="m0 74.669h512v42.662h-512z" fill="#d80027"/><path d="m0 298.663h512v42.663h-512z" fill="#d80027"/><path d="m0 0h256v192h-256z" fill="#2e52b2"/><g fill="#f0f0f0"><path d="m99.822 75.293-4.123 12.684h-13.336l10.791 7.835-4.123 12.683 10.791-7.835 10.784 7.835-4.122-12.683 10.791-7.835h-13.337z"/><path d="m103.938 133.749-4.116-12.683-4.123 12.683h-13.336l10.791 7.836-4.123 12.683 10.791-7.836 10.784 7.836-4.122-12.683 10.791-7.836z"/><path d="m47.577 133.749-4.117-12.683-4.123 12.683h-13.336l10.791 7.836-4.123 12.683 10.791-7.836 10.785 7.836-4.122-12.683 10.789-7.836z"/><path d="m43.46 75.293-4.123 12.684h-13.336l10.791 7.835-4.123 12.683 10.791-7.835 10.785 7.835-4.122-12.683 10.789-7.835h-13.335z"/><path d="m99.822 29.519-4.123 12.685h-13.336l10.791 7.836-4.123 12.683 10.791-7.836 10.784 7.836-4.122-12.683 10.791-7.836h-13.337z"/><path d="m43.46 29.519-4.123 12.685h-13.336l10.791 7.836-4.123 12.683 10.791-7.836 10.785 7.836-4.122-12.683 10.789-7.836h-13.335z"/><path d="m156.183 75.293-4.122 12.684h-13.336l10.79 7.835-4.121 12.683 10.789-7.835 10.786 7.835-4.123-12.683 10.791-7.835h-13.336z"/><path d="m160.301 133.749-4.118-12.683-4.122 12.683h-13.336l10.79 7.836-4.121 12.683 10.789-7.836 10.786 7.836-4.123-12.683 10.791-7.836z"/><path d="m216.663 133.749-4.117-12.683-4.123 12.683h-13.335l10.789 7.836-4.122 12.683 10.791-7.836 10.785 7.836-4.123-12.683 10.791-7.836z"/><path d="m212.546 75.293-4.123 12.684h-13.335l10.789 7.835-4.122 12.683 10.791-7.835 10.785 7.835-4.123-12.683 10.791-7.835h-13.336z"/><path d="m156.183 29.519-4.122 12.685h-13.336l10.79 7.836-4.121 12.683 10.789-7.836 10.786 7.836-4.123-12.683 10.791-7.836h-13.336z"/><path d="m212.546 29.519-4.123 12.685h-13.335l10.789 7.836-4.122 12.683 10.791-7.836 10.785 7.836-4.123-12.683 10.791-7.836h-13.336z"/></g></g></g></svg>
