<svg height="480pt" viewBox="0 0 640 480" width="640pt" xmlns="http://www.w3.org/2000/svg" xmlns:xlink="http://www.w3.org/1999/xlink"><clipPath id="a"><path d="m0 0h640v480h-640z"/></clipPath><clipPath id="b"><path d="m0 0h640v480h-640z"/></clipPath><g clip-path="url(#a)"><g clip-path="url(#b)"><path d="m0 0h640v480h-640z" fill="#f0f0f0"/><path d="m0 0h640v48h-640z" fill="#d80027"/><path d="m0 216h640v48h-640z" fill="#d80027"/><path d="m0 324h640v48h-640z" fill="#d80027"/><path d="m0 108h640v48h-640z" fill="#d80027"/><path d="m0 432h640v48h-640z" fill="#d80027"/><path d="m0 0h320v264h-320z" fill="#2e52b2"/><g fill="#f0f0f0"><path d="m124.778 105.88-5.154 17.836h-16.67l13.489 11.018-5.154 17.835 13.488-11.017 13.481 11.017-5.153-17.835 13.489-11.018h-16.672z"/><path d="m129.923 188.083-5.145-17.836-5.154 17.836h-16.67l13.489 11.019-5.154 17.835 13.488-11.019 13.481 11.019-5.153-17.835 13.489-11.019z"/><path d="m59.471 188.083-5.146-17.836-5.154 17.836h-16.67l13.489 11.019-5.154 17.835 13.489-11.019 13.481 11.019-5.152-17.835 13.486-11.019z"/><path d="m54.325 105.88-5.154 17.836h-16.67l13.489 11.018-5.154 17.835 13.489-11.017 13.481 11.017-5.152-17.835 13.486-11.018h-16.669z"/><path d="m124.778 41.511-5.154 17.838h-16.67l13.489 11.019-5.154 17.835 13.488-11.019 13.481 11.019-5.153-17.835 13.489-11.019h-16.672z"/><path d="m54.325 41.511-5.154 17.838h-16.67l13.489 11.019-5.154 17.835 13.489-11.019 13.481 11.019-5.152-17.835 13.486-11.019h-16.669z"/><path d="m195.229 105.88-5.153 17.836h-16.67l13.488 11.018-5.152 17.835 13.487-11.017 13.482 11.017-5.154-17.835 13.489-11.018h-16.67z"/><path d="m200.376 188.083-5.147-17.836-5.153 17.836h-16.67l13.488 11.019-5.152 17.835 13.487-11.019 13.482 11.019-5.154-17.835 13.489-11.019z"/><path d="m270.829 188.083-5.146-17.836-5.154 17.836h-16.669l13.486 11.019-5.152 17.835 13.489-11.019 13.481 11.019-5.154-17.835 13.489-11.019z"/><path d="m265.683 105.88-5.154 17.836h-16.669l13.486 11.018-5.152 17.835 13.489-11.017 13.481 11.017-5.154-17.835 13.489-11.018h-16.67z"/><path d="m195.229 41.511-5.153 17.838h-16.67l13.488 11.019-5.152 17.835 13.487-11.019 13.482 11.019-5.154-17.835 13.489-11.019h-16.67z"/><path d="m265.683 41.511-5.154 17.838h-16.669l13.486 11.019-5.152 17.835 13.489-11.019 13.481 11.019-5.154-17.835 13.489-11.019h-16.67z"/></g></g></g></svg>
